<svg width="216" height="45" viewBox="0 0 216 45" fill="none" xmlns="http://www.w3.org/2000/svg">
<path fill-rule="evenodd" clip-rule="evenodd" d="M20.6595 2.79883C9.2818 2.79883 0 11.9641 0 23.3832C0 34.8023 9.2818 44.1178 20.6595 44.1178C32.0372 44.1178 41.319 34.8023 41.319 23.3832C41.319 11.9641 32.0372 2.79883 20.6595 2.79883Z" fill="#4DC951"/>
<path d="M200.903 17.9856C199.53 19.3574 197.7 22.2534 195.718 26.5212C193.735 30.3317 192.668 32.3132 192.363 32.3132C192.058 32.3132 191.753 30.3317 191.753 26.2164C191.753 21.7962 191.295 19.0526 190.38 17.8332C189.16 16.4614 188.093 15.8518 186.416 15.8518C182.451 15.8518 178.028 21.1865 172.996 32.0083C172.996 30.9414 173.301 29.1124 173.911 26.6736C174.826 22.4058 175.283 19.8147 175.283 18.9002C175.283 15.6993 173.911 14.1751 171.319 14.1751C170.556 14.1751 169.946 14.3275 169.489 14.7848C169.184 15.2421 168.879 15.8518 168.879 16.4614C168.879 19.3574 168.726 22.101 168.269 25.1494C167.506 28.8075 167.354 33.3801 167.201 38.5624C167.201 41.9157 168.421 43.5923 170.709 43.5923C172.386 43.5923 173.454 42.6778 173.606 40.8487C175.131 37.4955 177.266 33.685 180.011 29.4172C182.756 25.1494 184.433 23.0155 185.196 23.0155C185.806 23.0155 185.958 25.4543 186.111 30.3317C186.111 35.6664 186.721 38.7149 187.636 39.6294C188.703 40.5439 189.618 40.8487 190.685 40.8487C192.058 40.8487 193.125 40.2391 194.345 39.0197C195.565 37.6479 196.938 35.3616 198.463 32.0083C200.293 28.3502 201.36 25.9115 202.123 24.6922C202.885 23.4728 203.495 22.8631 203.952 22.8631C204.41 22.8631 204.715 23.3204 204.867 24.0825C205.02 24.997 205.325 26.6736 205.477 29.1124C205.63 34.2947 206.392 37.8003 207.307 39.6294C208.375 41.306 209.747 42.2205 211.577 42.2205C212.492 42.2205 213.56 41.7633 214.475 41.1536C215.542 40.3915 216 39.477 216 38.8673C216 37.9528 215.542 37.3431 214.627 37.0382C213.56 36.4285 212.95 35.514 212.492 33.8374C212.187 32.3132 211.73 29.8745 211.425 26.826C211.12 22.8631 210.51 20.1195 209.747 18.4429C208.832 16.7663 207.46 15.8518 205.477 15.8518C203.952 15.8518 202.428 16.6139 200.903 17.9856ZM166.439 1.37179C165.676 0.457262 163.846 0 160.796 0C157.899 0 153.934 0.609683 148.444 1.37179C143.717 2.13389 138.837 2.59115 133.805 2.59115C130.907 2.59115 129.078 2.89599 128.315 3.35326C127.553 3.96294 127.095 4.72504 127.095 5.79199C127.095 7.01135 127.4 7.77346 128.163 8.38314C128.925 8.8404 130.145 8.99282 131.822 8.99282C132.432 8.99282 134.415 8.99282 137.77 8.68798C141.277 8.38314 143.107 8.23072 143.717 8.23072C143.412 8.38314 143.107 11.8888 142.345 18.5953C141.735 25.4543 141.43 30.4841 141.43 33.8374C141.43 36.4285 141.43 38.41 141.582 40.0866C141.887 41.6108 142.345 42.6778 143.26 43.4399C144.022 44.0496 144.784 44.3544 145.394 44.3544C146.157 44.3544 146.919 43.8972 147.529 43.1351C147.987 42.2205 148.292 41.1536 148.292 40.0866C148.292 39.7818 148.292 39.477 148.139 39.1721C147.834 37.3431 147.682 35.514 147.682 33.9898C147.682 30.3317 147.834 25.4543 148.597 19.205C149.054 13.1082 149.512 9.6025 149.512 8.99282C149.664 8.23072 149.817 7.77346 149.969 7.46861C151.647 6.85893 154.697 6.40167 159.119 6.40167C160.491 6.40167 161.864 6.55409 162.779 6.55409C163.999 6.70651 164.761 6.70651 165.219 6.70651C166.744 6.70651 167.506 5.79199 167.506 3.81052C167.506 3.04841 167.201 2.13389 166.439 1.37179ZM163.541 8.38314C162.169 8.38314 161.101 8.68798 160.491 9.45008C159.729 10.2122 159.424 11.1267 159.424 12.1937C159.424 13.1082 159.881 13.8703 160.491 14.6324C161.254 15.3945 162.016 15.8518 162.931 15.8518C163.541 15.8518 164.456 15.3945 165.371 14.6324C166.286 13.8703 166.744 12.6509 166.744 11.584C166.744 10.6694 166.439 10.0598 165.981 9.45008C165.219 8.68798 164.456 8.38314 163.541 8.38314ZM115.353 13.8703H104.831L115.353 28.3502L104.526 42.8302H115.048L120.69 34.5995L126.18 42.8302H136.855L126.18 28.1978L136.702 13.8703H126.333L120.843 21.9486L115.353 13.8703ZM101.476 42.8302V23.0155C101.476 19.6623 100.256 17.0711 98.1211 15.3945C95.6812 13.8703 92.0213 13.1082 87.1414 13.1082C85.0065 13.1082 83.0241 13.1082 81.0417 13.413C79.0592 13.8703 77.6868 14.1751 76.7718 14.48V21.4913H77.5343C78.7542 20.8816 80.2792 20.272 81.6516 19.9671C83.0241 19.5098 84.3965 19.3574 85.3115 19.3574C87.7514 19.3574 89.5814 19.6623 90.8013 20.272C91.8688 20.8816 92.4788 21.9486 92.4788 23.6252V23.7776C89.8864 23.93 87.2939 24.2349 85.159 24.5397C82.8716 24.8446 80.8892 25.4543 79.2117 26.2164C77.6868 26.9785 76.4668 27.893 75.5518 29.2648C74.6369 30.6366 74.1794 32.3132 74.1794 34.5995C74.1794 37.1906 75.0944 39.3245 76.7718 41.1536C78.4492 42.6778 80.5842 43.5923 83.1766 43.5923C84.549 43.5923 85.6165 43.5923 86.379 43.2875C87.2939 43.1351 87.9039 42.8302 88.8189 42.373C89.7339 42.0681 90.3438 41.6108 90.8013 41.1536C91.2588 40.6963 91.8688 40.3915 92.4788 39.7818V42.8302H101.476ZM92.4788 29.2648V35.3616C91.7163 35.9713 90.9538 36.4285 90.1913 36.7334C89.2764 37.1906 88.5139 37.3431 87.7514 37.3431C86.2265 37.3431 85.3115 37.1906 84.549 36.7334C83.7866 36.1237 83.3291 35.2092 83.3291 33.8374C83.3291 32.7704 83.6341 32.1608 84.0915 31.5511C84.3965 31.0938 85.159 30.6366 85.9215 30.3317C86.8365 29.8745 87.7514 29.722 88.6664 29.5696C89.7339 29.5696 90.8013 29.4172 92.4788 29.2648ZM84.0915 9.45008V2.13389H46.8828V9.45008H58.6249V43.7447H69.1471V9.45008H84.0915ZM162.474 20.7292C161.864 20.4244 160.949 20.272 159.729 20.272C158.662 20.272 157.899 20.7292 157.442 21.3389C156.832 22.101 156.679 22.8631 156.679 23.93C156.679 24.2349 156.374 25.9115 155.917 28.3502C155.917 29.1124 155.764 29.722 155.459 30.4841C154.849 33.9898 154.392 36.8858 154.544 39.3245C154.697 42.0681 155.917 43.4399 158.052 43.4399C158.967 43.2875 159.729 43.1351 160.491 42.5254C161.101 41.9157 161.559 41.4584 161.559 41.1536C161.559 41.0012 161.559 40.6963 161.559 40.5439C161.101 39.1721 160.796 37.9528 160.796 37.1906C160.796 35.9713 160.796 34.7519 161.101 32.9229C161.101 31.2462 161.559 28.9599 162.474 26.2164L162.779 25.7591C163.236 24.0825 163.541 22.8631 163.541 22.2534C163.541 21.7962 163.084 21.1865 162.474 20.7292Z" fill="#171717"/>
<path d="M9.74921 26.0832L14.5105 30.9733C15.8387 32.3375 18.0145 32.3449 19.3518 30.99L30.5561 19.6379C31.5323 18.6489 31.5323 17.0491 30.5561 16.0601C29.5749 15.0659 27.9803 15.0659 26.999 16.0601L17.727 25.4543C17.2834 25.9038 16.5623 25.9038 16.1187 25.4543L13.2688 22.5669C12.3132 21.5987 10.7643 21.5849 9.79199 22.5361C8.80506 23.5016 8.78586 25.0937 9.74921 26.0832Z" fill="white"/>
</svg>
